<svg width="140" height="43" viewBox="0 0 140 43" fill="none" xmlns="http://www.w3.org/2000/svg">
<rect x="1" y="0.5" width="138" height="42" rx="21" fill="white" stroke="#ADA9AD"/>
<path d="M52.5775 24.591L50.8341 19.7191L49.0989 24.591H52.5775ZM46.5 28.2057L50.114 18.4116H51.5623L55.1764 28.2057H53.8418L52.9782 25.6914H48.7144L47.8509 28.2057H46.5ZM57.6317 27.1053V31H56.465V20.8587H57.6317V21.9675C57.8781 21.5307 58.1867 21.2087 58.5603 20.9987C58.9393 20.7831 59.386 20.6767 59.903 20.6767C60.7666 20.6767 61.4677 21.0323 62.0065 21.7435C62.5506 22.4491 62.8213 23.3814 62.8213 24.5406C62.8213 25.6942 62.5506 26.6237 62.0065 27.3377C61.4677 28.0433 60.7666 28.3961 59.903 28.3961C59.386 28.3961 58.9393 28.2925 58.5603 28.0825C58.1867 27.8669 57.8781 27.5393 57.6317 27.1053ZM61.6058 24.5406C61.6058 23.653 61.4271 22.9558 61.0698 22.4491C60.7233 21.9423 60.2414 21.6875 59.6215 21.6875C59.0043 21.6875 58.5143 21.9423 58.1569 22.4491C57.805 22.9558 57.629 23.653 57.629 24.5406C57.629 25.4282 57.805 26.1253 58.1569 26.6321C58.5143 27.1333 59.0015 27.3853 59.6215 27.3853C60.2387 27.3853 60.7233 27.1333 61.0698 26.6321C61.4271 26.1253 61.6058 25.4282 61.6058 24.5406ZM65.8858 27.1053V31H64.7109V20.8587H65.8858V21.9675C66.1321 21.5307 66.438 21.2087 66.8062 20.9987C67.1852 20.7831 67.6346 20.6767 68.1571 20.6767C69.0152 20.6767 69.7137 21.0323 70.2524 21.7435C70.7965 22.4491 71.0672 23.3814 71.0672 24.5406C71.0672 25.6942 70.7965 26.6237 70.2524 27.3377C69.7137 28.0433 69.0152 28.3961 68.1571 28.3961C67.6346 28.3961 67.1852 28.2925 66.8062 28.0825C66.438 27.8669 66.1294 27.5393 65.8858 27.1053ZM69.8517 24.5406C69.8517 23.653 69.6731 22.9558 69.3157 22.4491C68.9692 21.9423 68.4873 21.6875 67.8674 21.6875C67.2502 21.6875 66.7602 21.9423 66.4028 22.4491C66.0563 22.9558 65.8831 23.653 65.8831 24.5406C65.8831 25.4282 66.0563 26.1253 66.4028 26.6321C66.7602 27.1333 67.2475 27.3853 67.8674 27.3853C68.4846 27.3853 68.9692 27.1333 69.3157 26.6321C69.6731 26.1253 69.8517 25.4282 69.8517 24.5406ZM79.4648 26.8085V24.1794H77.3776V23.0874H80.7371V27.2985C80.2417 27.6625 79.6949 27.9369 79.0966 28.1245C78.5037 28.3065 77.8703 28.3961 77.1935 28.3961C75.71 28.3961 74.5513 27.9481 73.7148 27.0549C72.8837 26.1617 72.4668 24.9158 72.4668 23.317C72.4668 21.7183 72.8837 20.4723 73.7148 19.5792C74.5513 18.6804 75.7127 18.2296 77.1935 18.2296C77.8107 18.2296 78.3955 18.3108 78.945 18.4704C79.5054 18.6244 80.0197 18.8568 80.4881 19.1648V20.5787C80.0143 20.1587 79.5108 19.8451 78.9775 19.6351C78.4442 19.4252 77.8838 19.3216 77.2991 19.3216C76.1431 19.3216 75.2714 19.6548 74.684 20.3211C74.1074 20.9931 73.8204 21.9927 73.8204 23.3142C73.8204 24.6358 74.1074 25.6326 74.684 26.2989C75.2714 26.9653 76.1431 27.2985 77.2991 27.2985C77.7512 27.2985 78.1572 27.2593 78.5146 27.1837C78.8665 27.1053 79.1832 26.9793 79.4648 26.8085ZM87.375 24.507H86.2164C85.2716 24.507 84.6192 24.619 84.2564 24.8458C83.8936 25.067 83.7123 25.4478 83.7123 25.9882C83.7123 26.4193 83.8476 26.7609 84.121 27.0129C84.3918 27.2621 84.7626 27.3853 85.2337 27.3853C85.8834 27.3853 86.4032 27.1473 86.793 26.6741C87.1828 26.2009 87.3777 25.5682 87.3777 24.7786V24.507H87.375ZM88.5418 24.0114V28.2057H87.375V27.0885C87.1097 27.5365 86.7767 27.8669 86.3842 28.0825C85.9836 28.2925 85.4963 28.3961 84.9196 28.3961C84.1941 28.3961 83.6148 28.1861 83.1844 27.7661C82.7566 27.3405 82.5455 26.7721 82.5455 26.061C82.5455 25.2406 82.8108 24.6162 83.3441 24.1906C83.8828 23.7706 84.6814 23.5606 85.7426 23.5606H87.375V23.4458C87.375 22.8886 87.1991 22.4575 86.8471 22.1551C86.4952 21.8527 85.9998 21.7015 85.3609 21.7015C84.9548 21.7015 84.5623 21.7519 84.1779 21.8499C83.7935 21.9479 83.4226 22.1019 83.0653 22.3035V21.1863C83.493 21.0155 83.9072 20.8895 84.3132 20.8055C84.7139 20.7159 85.101 20.6739 85.48 20.6739C86.5087 20.6739 87.2776 20.9483 87.7838 21.4999C88.29 22.0571 88.5418 22.8914 88.5418 24.0114ZM90.9484 28.2057V18H92.1152V28.2057H90.9484ZM94.557 28.2057V18H95.7238V28.2057H94.557ZM104.208 24.227V24.8234H98.8424C98.8912 25.6494 99.1294 26.2849 99.5625 26.7245C99.9984 27.1557 100.605 27.3685 101.379 27.3685C101.826 27.3685 102.259 27.3125 102.676 27.2033C103.103 27.0885 103.52 26.9177 103.932 26.6909V27.8333C103.515 28.0153 103.087 28.1553 102.643 28.2561C102.207 28.3485 101.761 28.3961 101.309 28.3961C100.177 28.3961 99.281 28.0545 98.6123 27.3713C97.9518 26.6937 97.6215 25.7726 97.6215 24.6078C97.6215 23.401 97.9355 22.4463 98.5663 21.7463C99.1944 21.0351 100.044 20.6795 101.108 20.6795C102.064 20.6795 102.817 20.9987 103.371 21.6399C103.929 22.2727 104.208 23.135 104.208 24.227ZM98.8749 23.8798H103.041C103.03 23.219 102.849 22.6899 102.497 22.2923C102.151 21.9003 101.69 21.7043 101.114 21.7043C100.464 21.7043 99.9415 21.8947 99.5463 22.2755C99.1565 22.6563 98.9345 23.191 98.8749 23.8798ZM110.191 20.7439L110.199 21.9843C110.066 21.9059 109.923 21.8499 109.766 21.8107C109.609 21.7715 109.444 21.7519 109.262 21.7519C108.602 21.7519 108.093 21.9759 107.735 22.4211C107.383 22.8635 107.207 23.499 107.207 24.3306V28.2029H106.041V20.8587H107.207V22.0011C107.454 21.5531 107.773 21.2227 108.169 21.0071C108.564 20.7859 109.04 20.6767 109.601 20.6767C109.682 20.6767 109.771 20.6851 109.871 20.7019C109.966 20.7075 110.074 20.7215 110.191 20.7439ZM117.5 20.8587L114.381 28.8833C114.051 29.7596 113.729 30.3336 113.415 30.6024C113.101 30.8684 112.681 31 112.159 31H111.222V29.992H111.91C112.229 29.992 112.481 29.9108 112.662 29.7512C112.838 29.5972 113.033 29.2249 113.247 28.6341L113.464 28.0881L110.583 20.8587H111.823L114.046 26.5985L116.26 20.8587H117.5Z" fill="#010202"/>
<path d="M46.5 15.9065V11.0855H49.595V11.6303H47.157V13.0593H49.4918V13.6122H47.157V15.3563H49.6601V15.9092H46.5V15.9065ZM52.0356 13.3344L50.5126 11.0855H51.2266L52.4456 12.8777L53.6646 11.0855H54.3786L52.8067 13.3985L54.4818 15.9065H53.7677L52.3967 13.8552L51.0013 15.9065H50.2873L52.0356 13.3344ZM56.8464 11.6223H56.0129V13.4306H56.8464C57.1559 13.4306 57.3975 13.3531 57.5686 13.2009C57.7342 13.0433 57.8183 12.8162 57.8183 12.5224C57.8183 12.2393 57.7342 12.0176 57.5686 11.86C57.3975 11.7025 57.1559 11.6223 56.8464 11.6223ZM55.3559 15.9065V11.0855H56.8464C57.3975 11.0855 57.8129 11.2057 58.098 11.4487C58.3749 11.6971 58.5161 12.0523 58.5161 12.5224C58.5161 13.0005 58.3776 13.3611 58.098 13.6042C57.8156 13.8472 57.3975 13.9674 56.8464 13.9674H56.0129V15.9092H55.3559V15.9065ZM59.4065 15.9065V11.0855H60.0717V15.3536H62.4608V15.9065H59.4065ZM64.9069 11.5288C64.4264 11.5288 64.0409 11.7051 63.7531 12.0577C63.4762 12.4103 63.335 12.891 63.335 13.5027C63.335 14.1063 63.4734 14.5897 63.7531 14.9476C64.0409 15.3002 64.4264 15.4765 64.9069 15.4765C65.3874 15.4765 65.7675 15.3002 66.0444 14.9476C66.3268 14.5897 66.4707 14.109 66.4707 13.5027C66.4707 12.8937 66.3295 12.4103 66.0444 12.0577C65.7675 11.7025 65.3874 11.5288 64.9069 11.5288ZM64.9069 11C65.5911 11 66.1395 11.227 66.5521 11.6784C66.9648 12.1298 67.1684 12.7388 67.1684 13.5C67.1684 14.2639 66.9621 14.8702 66.5521 15.3216C66.1395 15.773 65.5911 16 64.9069 16C64.2173 16 63.6635 15.773 63.2454 15.3216C62.8327 14.8702 62.6291 14.2612 62.6291 13.5C62.6291 12.7361 62.8355 12.1298 63.2454 11.6784C63.6635 11.2244 64.2173 11 64.9069 11ZM70.5294 13.6416C70.6733 13.6896 70.8118 13.7911 70.9475 13.9487C71.0806 14.101 71.2163 14.3146 71.3575 14.5871L72.0308 15.9038H71.3167L70.6923 14.6645C70.5267 14.344 70.3693 14.1303 70.2199 14.0262C70.0652 13.922 69.8561 13.8686 69.5955 13.8686H68.8734V15.9038H68.2082V11.0855H69.7068C70.2688 11.0855 70.6869 11.2003 70.9665 11.4327C71.238 11.6597 71.3765 12.0069 71.3765 12.4744C71.3765 12.7788 71.3032 13.0326 71.1593 13.2329C71.01 13.4306 70.8036 13.5694 70.5294 13.6416ZM69.7041 11.6223H68.8706V13.3344H69.7041C70.0245 13.3344 70.2661 13.2596 70.4263 13.1127C70.5919 12.9658 70.676 12.7521 70.676 12.4744C70.676 12.1912 70.5919 11.9776 70.4263 11.836C70.2661 11.6944 70.0245 11.6223 69.7041 11.6223ZM72.8805 15.9065V11.0855H75.9755V11.6303H73.5457V13.0593H75.8805V13.6122H73.5457V15.3563H76.0406V15.9092H72.8805V15.9065ZM79.2632 15.9065V11.0855H79.9284V15.9065H79.2632ZM80.5718 11.6303V11.0855H84.7174V11.6303H82.9772V15.9065H82.312V11.6303H80.5718ZM89.482 11.5288C89.0015 11.5288 88.6187 11.7051 88.3364 12.0577C88.054 12.4103 87.9101 12.891 87.9101 13.5027C87.9101 14.1063 88.0513 14.5897 88.3364 14.9476C88.6187 15.3002 89.0015 15.4765 89.482 15.4765C89.9626 15.4765 90.3454 15.3002 90.6277 14.9476C90.9046 14.5897 91.0458 14.109 91.0458 13.5027C91.0458 12.8937 90.9073 12.4103 90.6277 12.0577C90.3454 11.7025 89.9626 11.5288 89.482 11.5288ZM89.482 11C90.1716 11 90.7227 11.227 91.1354 11.6784C91.5481 12.1298 91.7517 12.7388 91.7517 13.5C91.7517 14.2639 91.5453 14.8702 91.1354 15.3216C90.7255 15.773 90.1716 16 89.482 16C88.7925 16 88.2413 15.773 87.8287 15.3216C87.416 14.8702 87.2124 14.2612 87.2124 13.5C87.2124 12.7361 87.4187 12.1298 87.8287 11.6784C88.2413 11.2244 88.7925 11 89.482 11ZM92.786 15.9065V11.0855H93.6765L95.8512 15.1186V11.0855H96.5V15.9065H95.6014L93.4268 11.8734V15.9065H92.786Z" fill="#010202"/>
<path d="M38.1563 11H29.8514C25.9341 11 24.5 12.5014 24.5 16.6249V25.3669C24.5 29.4904 25.9341 31 29.8514 31H38.1563C42.0659 31 43.5 29.4904 43.5 25.3669V16.6249C43.5 12.5014 42.0736 11 38.1563 11Z" fill="#010202"/>
<path fill-rule="evenodd" clip-rule="evenodd" d="M32.5809 22.4322L32.3472 22.9527H31.8273L32.9353 20.4293H33.3843L34.4923 22.9527H33.9567L33.7309 22.4322H32.5809ZM32.7647 21.9749H33.5392L33.1506 21.0733L32.7647 21.9749ZM40.988 20.4293H41.5V22.9527H40.988V20.4293ZM38.9794 22.4953H40.3841V22.9527H38.4753V20.4293H40.329V20.8946H38.9794V21.4071H39.9115V21.8724H38.9794V22.4953ZM37.5275 20.4293H38.0631L37.1862 22.9606H36.7529L36.1779 21.2994L35.6029 22.9606H35.1828L34.298 20.4293H34.8494L35.4086 22.1694L35.9758 20.4293H36.3959L36.9709 22.1694L37.5275 20.4293ZM31.0528 20.4293H31.5648V21.8592C31.5648 22.5821 31.1683 23 30.4699 23C29.7872 23 29.3908 22.5873 29.3908 21.875V20.432H29.9028V21.8619C29.9028 22.2877 30.1049 22.5137 30.4778 22.5137C30.8506 22.5137 31.0528 22.2877 31.0528 21.8776V20.4293ZM28.1673 20.4293H28.6792V22.9606H28.1673V21.9276H27.012V22.9606H26.5V20.4293H27.012V21.4466H28.1673V20.4293ZM33.9987 17.2147C32.2212 17.2147 30.7876 15.7716 30.7876 14H31.2366C31.2366 15.5219 32.4785 16.7573 33.9987 16.7573C35.5189 16.7573 36.7608 15.5219 36.7608 14H37.2098C37.2098 15.769 35.7683 17.2147 33.9987 17.2147Z" fill="white"/>
</svg>
