<svg width="24" height="24" viewBox="0 0 24 24" fill="none" xmlns="http://www.w3.org/2000/svg">
<circle cx="11" cy="11" r="10.5" transform="matrix(1 0 0 -1 0.5 23)" stroke="#FAFAFA"/>
<path d="M9.92065 8.04447C9.87836 8.01584 9.83018 8.0005 9.78101 8.00001C9.73184 7.99952 9.68344 8.0139 9.64071 8.04168C9.59798 8.06945 9.56246 8.10965 9.53775 8.15817C9.51303 8.2067 9.50001 8.26183 9.5 8.31796V15.682C9.50001 15.7382 9.51303 15.7933 9.53775 15.8418C9.56246 15.8904 9.59798 15.9305 9.64071 15.9583C9.68344 15.9861 9.73184 16.0005 9.78101 16C9.83018 15.9995 9.87836 15.9842 9.92065 15.9555L15.3636 12.2735C15.4051 12.2453 15.4396 12.2053 15.4635 12.1574C15.4874 12.1094 15.5 12.0552 15.5 12C15.5 11.9448 15.4874 11.8906 15.4635 11.8426C15.4396 11.7947 15.4051 11.7547 15.3636 11.7265L9.92065 8.04447Z" stroke="#FAFAFA" stroke-width="1.5" stroke-linecap="round" stroke-linejoin="round"/>
</svg>
